<svg width="310" height="79" viewBox="0 0 310 79" fill="none" xmlns="http://www.w3.org/2000/svg">
<path fill-rule="evenodd" clip-rule="evenodd" d="M3.94303 1.13535V74.9805C11.6298 74.6205 18.6742 71.8154 24.3152 67.3293C30.2384 62.6176 34.6189 56.0531 36.5782 48.5133H40.0496C38.0173 57.1283 33.1165 64.6346 26.4118 69.9674C19.7811 75.2435 11.383 78.3971 2.25535 78.3971H0.566711V1.13439H3.94399L3.94303 1.13535ZM9.80671 36.183H37.5555C36.8547 28.7526 33.8614 21.9894 29.2938 16.6125C24.3574 10.8006 17.5779 6.59967 9.86239 4.91487L9.80575 6.37887L9.80671 36.183ZM37.7139 39.5613H9.80767L9.80959 69.3251V71.2403H6.43135V6.37791C6.61087 4.70271 6.58303 2.66367 6.65119 0.927994L8.52799 1.23232C17.8304 2.74432 26.024 7.56063 31.8646 14.4352C37.6189 21.209 41.0902 29.9814 41.0902 39.5603H39.3747H37.7139V39.5613ZM48.3757 14.7904H51.0915V31.9456H57.5446V34.6614H48.3757V14.7904ZM60.031 14.7904H71.0528V17.5053H62.7469V22.4253H71.0528V25.1402H62.7469V31.9446H71.0528V34.6605H60.031V14.7894V14.7904ZM73.4806 14.7904H76.4672L80.9024 22.0528L85.3059 14.7904H88.3357L82.4144 24.5555L88.495 34.6614H85.5085L80.9024 27.0525L76.2867 34.6614H73.257L79.3846 24.5498L73.4797 14.7904H73.4806ZM105.758 14.0234L112.136 28.7238L118.116 14.7904H120.948L112.147 35.2998L105.757 20.5667L99.368 35.2998L90.5341 14.7904H93.3344L99.3939 28.8573L105.757 14.0234H105.758ZM123.6 14.7904H134.622V17.5053H126.316V22.4253H134.622V25.1402H126.316V31.9446H134.622V34.6605H123.6V14.7894V14.7904ZM138.232 14.7904H140.948V31.9456H147.401V34.6614H138.232V14.7904ZM150.526 14.7904H153.242V31.9456H159.695V34.6614H150.526V14.7904ZM171.314 14.1827H178.316C180.201 14.1827 181.718 14.7309 182.874 15.8339C184.029 16.9302 184.604 18.3789 184.604 20.1731C184.604 21.3501 184.322 22.4685 183.759 23.5274C183.194 24.5814 182.342 25.3744 181.197 25.8966C180.058 26.4131 179.083 26.6838 178.273 26.7059L175.724 26.7702V34.6614H171.315V14.1837L171.314 14.1827ZM175.659 17.8883V23.127H177.352C178.081 23.127 178.704 22.8611 179.227 22.3341C179.743 21.8013 180.003 21.1734 180.003 20.4438C180.003 19.6134 179.71 18.9693 179.125 18.5114C178.54 18.0525 177.709 17.825 176.628 17.825L175.659 17.8883ZM193.039 14.1827H196.489L204.828 34.6605H200.387L198.747 30.6352H190.888L189.28 34.6605H184.861L193.039 14.1827ZM194.78 20.8922L192.368 26.9306H197.24L194.78 20.8922ZM207.862 14.1827H214.619C216.674 14.1827 218.298 14.7203 219.491 15.8013C220.683 16.8822 221.279 18.3472 221.279 20.1837C221.279 21.233 221.008 22.3235 220.46 23.4582C219.911 24.5872 218.9 25.4762 217.425 26.1213L223.166 34.6614H218.107L212.782 26.7386H212.271V34.6614H207.862V14.1837V14.1827ZM212.271 17.825V23.1597H213.239C215.577 23.1597 216.743 22.217 216.743 20.3373C216.743 19.5654 216.439 18.952 215.832 18.4998C215.226 18.0477 214.379 17.824 213.304 17.824H212.271V17.825ZM224.831 14.1827H238.601V18.5277H233.904V34.6614H229.495V18.5277H224.83V14.1827H224.831ZM255.086 14.1827H259.399V34.6605H255.129L245.726 21.4029V34.6605H241.316V14.1827H245.672L255.086 27.3453V14.1827ZM263.552 14.1827H275.085V18.2397H267.961V22.361H275.085V26.3546H267.961V30.6035H275.085V34.6605H263.552V14.1827ZM278.759 14.1827H285.516C287.571 14.1827 289.195 14.7203 290.388 15.8013C291.58 16.8822 292.176 18.3472 292.176 20.1837C292.176 21.233 291.905 22.3235 291.356 23.4582C290.808 24.5872 289.796 25.4762 288.322 26.1213L294.063 34.6614H289.004L283.679 26.7386H283.168V34.6614H278.759V14.1837V14.1827ZM283.168 17.825V23.1597H284.137C286.474 23.1597 287.641 22.217 287.641 20.3373C287.641 19.5654 287.337 18.952 286.73 18.4998C286.124 18.0477 285.277 17.824 284.202 17.824H283.169L283.168 17.825ZM308.949 16.025L306.202 19.0384C304.748 18.1869 303.699 17.7606 303.06 17.7606C302.565 17.7606 302.139 17.9469 301.782 18.3146C301.425 18.6822 301.25 19.1181 301.25 19.625C301.25 20.631 302.166 21.5046 303.998 22.2496C305.34 22.8256 306.356 23.3469 307.049 23.8106C307.741 24.2742 308.321 24.9126 308.789 25.7373C309.258 26.5571 309.492 27.447 309.492 28.4051C309.492 30.1667 308.779 31.696 307.357 32.9949C305.935 34.2995 304.253 34.9485 302.315 34.9485C300.185 34.9485 298.087 33.9472 296.011 31.9456L298.913 28.5597C300.223 29.9008 301.442 30.5718 302.587 30.5718C303.119 30.5718 303.63 30.3376 304.121 29.8691C304.616 29.4054 304.861 28.9158 304.861 28.3994C304.861 27.3453 303.732 26.3968 301.474 25.5664C300.186 25.0874 299.27 24.64 298.722 24.2301C298.173 23.8202 297.71 23.2182 297.337 22.4358C296.965 21.6477 296.779 20.849 296.779 20.0234C296.779 18.2032 297.375 16.7277 298.562 15.593C299.75 14.4592 301.304 13.8947 303.226 13.8947C305.499 13.8947 307.406 14.6032 308.95 16.025H308.949ZM49.9539 61.457H48.6118C48.4381 61.457 48.3757 61.3514 48.4256 61.1402L51.6685 49.792C51.7309 49.5808 51.8797 49.4752 52.1149 49.4752H53.9782C54.2259 49.4752 54.3757 49.5808 54.4246 49.792L57.6675 61.1402C57.7165 61.3514 57.6483 61.457 57.4621 61.457H56.1392C56.0269 61.457 55.9491 61.4349 55.9059 61.3917C55.8627 61.3485 55.8282 61.265 55.8032 61.1402L55.0957 58.7181H50.9955L50.288 61.1402C50.2381 61.3514 50.1258 61.457 49.952 61.457H49.9539ZM53.0096 51.2646L51.3699 57.2272H54.7424L53.0835 51.2646H53.0086H53.0096ZM67.6707 61.457H66.7203C65.8265 61.457 65.1392 61.2045 64.6621 60.7024C64.184 60.1994 63.944 59.488 63.944 58.5693V54.8416C63.944 53.9104 64.184 53.1962 64.6621 52.6989C65.1401 52.2016 65.8265 51.9539 66.7203 51.9539H67.6707C68.6278 51.9539 69.248 52.2832 69.5341 52.9408H69.609V48.6746C69.609 48.4634 69.7146 48.3578 69.9258 48.3578H71.1181C71.3293 48.3578 71.4349 48.4634 71.4349 48.6746V61.1402C71.4349 61.3514 71.3293 61.457 71.1181 61.457H69.9258C69.7146 61.457 69.609 61.3514 69.609 61.1402V60.4701H69.5341C69.248 61.1286 68.6278 61.457 67.6707 61.457ZM69.609 58.289V55.121C69.609 54.065 69.0992 53.537 68.0797 53.537H67.0928C66.1981 53.537 65.7507 53.9968 65.7507 54.9155V58.4944C65.7507 59.4131 66.1981 59.872 67.0928 59.872H68.0797C69.0982 59.872 69.609 59.344 69.609 58.289ZM77.9898 51.953H79.2387C79.4374 51.953 79.5555 52.0586 79.593 52.2698L81.5302 59.7606H81.6608L83.5616 52.2698C83.6115 52.0586 83.7421 51.953 83.9533 51.953H85.183C85.4067 51.953 85.4806 52.0586 85.4067 52.2698L82.8915 61.121C82.8416 61.3446 82.7053 61.457 82.4816 61.457H80.6931C80.4694 61.457 80.3321 61.3446 80.2832 61.121L77.768 52.2698C77.7181 52.0586 77.793 51.953 77.9907 51.953H77.9898ZM96.08 61.456H94.4403C93.5206 61.456 92.8093 61.2016 92.3062 60.6918C91.8032 60.1821 91.5517 59.4736 91.5517 58.5674V54.8397C91.5517 53.921 91.8032 53.2096 92.3062 52.7066C92.8093 52.2035 93.5206 51.952 94.4403 51.952H96.08C96.9862 51.952 97.6976 52.2035 98.2131 52.7066C98.7296 53.2096 98.9869 53.921 98.9869 54.8397V58.5674C98.9869 59.4736 98.7296 60.1811 98.2131 60.6918C97.6976 61.2016 96.9872 61.456 96.08 61.456ZM94.7005 59.872H95.8371C96.7309 59.872 97.1782 59.4189 97.1782 58.5117V54.8963C97.1782 53.9901 96.7309 53.536 95.8371 53.536H94.7005C94.2282 53.536 93.8864 53.6445 93.6761 53.8624C93.4649 54.0803 93.3584 54.424 93.3584 54.8963V58.5117C93.3584 58.983 93.4649 59.3286 93.6761 59.5466C93.8873 59.7635 94.2291 59.872 94.7005 59.872ZM111.71 60.1898V61.1584C111.71 61.3571 111.597 61.457 111.374 61.457H108.635C107.716 61.457 107.004 61.2026 106.501 60.6928C105.998 60.183 105.746 59.4746 105.746 58.5683V54.8406C105.746 53.9219 105.999 53.2106 106.501 52.7075C107.004 52.2045 107.715 51.953 108.635 51.953H111.374C111.597 51.953 111.71 52.0586 111.71 52.2698V53.2384C111.71 53.4371 111.597 53.536 111.374 53.536H108.896C108.001 53.536 107.554 53.9958 107.554 54.9146V58.4934C107.554 59.4122 108.001 59.871 108.896 59.871H111.374C111.597 59.871 111.71 59.9776 111.71 60.1888V60.1898ZM121.712 61.457H120.985C120.066 61.457 119.354 61.2026 118.851 60.6928C118.348 60.183 118.097 59.4746 118.097 58.5683V54.8406C118.097 53.9219 118.348 53.2106 118.851 52.7075C119.354 52.2045 120.066 51.953 120.985 51.953H125.159C125.383 51.953 125.494 52.0586 125.494 52.2698V61.1392C125.494 61.3504 125.383 61.456 125.159 61.456H123.985C123.774 61.456 123.668 61.3504 123.668 61.1392V60.4691H123.594C123.296 61.1277 122.668 61.456 121.712 61.456V61.457ZM123.669 58.289V53.7232C123.669 53.5984 123.6 53.537 123.464 53.537H121.246C120.352 53.537 119.904 53.9968 119.904 54.9155V58.4944C119.904 59.4131 120.352 59.872 121.246 59.872H122.14C123.159 59.872 123.668 59.344 123.668 58.289H123.669ZM132.908 53.537H132.013C131.889 53.537 131.804 53.5158 131.762 53.4717C131.719 53.4285 131.697 53.3507 131.697 53.2394V52.2707C131.697 52.0595 131.803 51.9539 132.014 51.9539H132.908C133.033 51.9539 133.095 51.8915 133.095 51.7677V50.0906C133.095 49.8794 133.207 49.7738 133.43 49.7738H134.603C134.815 49.7738 134.921 49.8794 134.921 50.0906V51.7677C134.921 51.8925 134.989 51.9539 135.125 51.9539H136.858C137.082 51.9539 137.194 52.0595 137.194 52.2707V53.2394C137.194 53.4381 137.082 53.537 136.858 53.537H135.125C134.989 53.537 134.921 53.5994 134.921 53.7232V58.5126C134.921 59.4189 135.386 59.873 136.317 59.873H137.044C137.268 59.873 137.379 59.9795 137.379 60.1907V61.1594C137.379 61.3581 137.267 61.4579 137.044 61.4579H136.038C135.119 61.4579 134.398 61.2093 133.876 60.713C133.354 60.2157 133.094 59.5139 133.094 58.6067V53.7251C133.094 53.6003 133.031 53.5389 132.908 53.5389V53.537ZM150.699 61.457H146.674C145.755 61.457 145.043 61.2026 144.54 60.6928C144.037 60.183 143.785 59.4746 143.785 58.5683V54.8406C143.785 53.9219 144.037 53.2106 144.54 52.7075C145.043 52.2045 145.754 51.953 146.674 51.953H148.201C149.121 51.953 149.835 52.2045 150.344 52.7075C150.854 53.2106 151.108 53.9219 151.108 54.8406V57.207C151.108 57.4307 150.997 57.543 150.773 57.543H145.779C145.642 57.543 145.575 57.6054 145.575 57.7293V58.5309C145.575 59.4381 146.028 59.8912 146.935 59.8912H150.699C150.923 59.8912 151.034 60.0035 151.034 60.2262V61.1574C151.034 61.3562 150.922 61.456 150.699 61.456V61.457ZM145.78 56.2768H149.115C149.24 56.2768 149.301 56.2144 149.301 56.0906V54.8982C149.301 54.4259 149.196 54.0822 148.985 53.8643C148.773 53.6474 148.432 53.5379 147.96 53.5379H146.935C146.463 53.5379 146.121 53.6464 145.911 53.8643C145.7 54.0822 145.593 54.4259 145.593 54.8982V56.0906C145.593 56.2154 145.655 56.2768 145.779 56.2768H145.78ZM161.354 61.457H157.926C157.715 61.457 157.609 61.3514 157.609 61.1402V60.2262C157.609 60.0275 157.716 59.9286 157.926 59.9286H161.057C161.865 59.9286 162.268 59.6493 162.268 59.0906V58.8669C162.268 58.3706 161.976 57.9914 161.392 57.7302L159.361 56.7616C158.728 56.463 158.268 56.1338 157.982 55.7738C157.697 55.4138 157.554 54.9414 157.554 54.3578C157.554 52.7546 158.442 51.9539 160.219 51.9539H163.312C163.51 51.9539 163.61 52.0595 163.61 52.2707V53.1837C163.61 53.3949 163.51 53.5005 163.312 53.5005H160.591C160.219 53.5005 159.932 53.5658 159.734 53.6963C159.535 53.8259 159.435 53.9968 159.435 54.208V54.4134C159.435 54.8109 159.752 55.1584 160.386 55.457L162.435 56.5005C163.081 56.7856 163.526 57.1245 163.768 57.5152C164.01 57.9069 164.132 58.4128 164.132 59.0339C164.132 60.6496 163.206 61.457 161.354 61.457ZM178.232 59.8547H179.256C179.952 59.8547 180.343 59.5379 180.431 58.9043L177.915 55.9782C177.195 56.0157 176.835 56.5005 176.835 57.4317V58.4944C176.835 59.4006 177.301 59.8547 178.232 59.8547ZM179.256 61.457H177.971C177.065 61.457 176.356 61.2083 175.846 60.712C175.337 60.2147 175.082 59.513 175.082 58.6058V57.3203C175.082 56.7002 175.244 56.152 175.566 55.6806C175.889 55.2083 176.361 54.9482 176.983 54.8982C176.473 54.2397 176.219 53.513 176.219 52.719V52.3274C176.219 51.4336 176.489 50.7347 177.029 50.2317C177.569 49.7286 178.299 49.4771 179.219 49.4771H179.778C180.685 49.4771 181.393 49.7248 181.902 50.2221C182.411 50.7184 182.666 51.4211 182.666 52.3274V53.0541C182.666 53.2778 182.561 53.3891 182.349 53.3891H181.175C180.964 53.3891 180.859 53.2768 180.859 53.0541V52.3648C180.859 51.4701 180.442 51.0237 179.61 51.0237H179.386C178.516 51.0237 178.081 51.4701 178.081 52.3648V52.7555C178.081 53.3152 178.355 53.8989 178.901 54.5075L179.889 55.6442H184.156C184.367 55.6442 184.473 55.7555 184.473 55.9792V56.9296C184.473 57.1408 184.366 57.2464 184.156 57.2464H181.23L184.565 61.1968C184.615 61.2467 184.63 61.3024 184.612 61.3648C184.594 61.4272 184.547 61.4579 184.473 61.4579H182.982C182.733 61.4579 182.554 61.383 182.442 61.2342L181.529 60.1533C181.244 61.023 180.485 61.4579 179.254 61.4579L179.256 61.457ZM195.874 58.5501V58.0653C195.874 57.8541 195.98 57.7485 196.191 57.7485H197.383C197.594 57.7485 197.7 57.8541 197.7 58.0653V58.4013C197.7 58.9235 197.815 59.2989 198.044 59.5283C198.274 59.7578 198.656 59.873 199.191 59.873H200.476C201.01 59.873 201.396 59.752 201.632 59.5101C201.867 59.2682 201.986 58.8736 201.986 58.3264V57.8982C201.986 57.5008 201.834 57.1878 201.529 56.9574C201.225 56.728 200.85 56.5792 200.402 56.5101C199.955 56.4419 199.464 56.3459 198.931 56.2211C198.397 56.0963 197.906 55.9542 197.459 55.793C197.012 55.6317 196.636 55.3274 196.332 54.88C196.028 54.4326 195.875 53.8614 195.875 53.1654V52.383C195.875 51.4768 196.133 50.7645 196.649 50.2499C197.164 49.7344 197.876 49.4762 198.782 49.4762H200.756C201.676 49.4762 202.393 49.7344 202.909 50.2499C203.424 50.7654 203.683 51.4768 203.683 52.383V52.793C203.683 53.0042 203.577 53.1098 203.366 53.1098H202.172C201.961 53.1098 201.856 53.0042 201.856 52.793V52.551C201.856 52.0173 201.741 51.6352 201.511 51.4048C201.282 51.1754 200.9 51.0602 200.365 51.0602H199.192C198.657 51.0602 198.276 51.1811 198.045 51.423C197.816 51.6659 197.701 52.0787 197.701 52.6624V53.2403C197.701 53.799 198.105 54.1773 198.912 54.376C199.273 54.4634 199.667 54.5382 200.096 54.5997C200.524 54.6621 200.956 54.7552 201.391 54.879C201.826 55.0029 202.223 55.168 202.583 55.3725C202.943 55.5779 203.235 55.888 203.459 56.3046C203.683 56.7203 203.795 57.2262 203.795 57.8224V58.5491C203.795 59.4563 203.537 60.1667 203.021 60.6832C202.506 61.1987 201.794 61.456 200.888 61.456H198.801C197.894 61.456 197.18 61.1977 196.658 60.6832C196.137 60.1667 195.876 59.4563 195.876 58.5491L195.874 58.5501ZM215.268 61.457H213.628C212.709 61.457 211.998 61.2026 211.495 60.6928C210.992 60.183 210.74 59.4746 210.74 58.5683V54.8406C210.74 53.9219 210.992 53.2106 211.495 52.7075C211.998 52.2045 212.709 51.953 213.628 51.953H215.268C216.175 51.953 216.885 52.2045 217.401 52.7075C217.916 53.2106 218.175 53.9219 218.175 54.8406V58.5683C218.175 59.4746 217.916 60.1821 217.401 60.6928C216.885 61.2026 216.175 61.457 215.268 61.457ZM213.889 59.873H215.026C215.92 59.873 216.367 59.4198 216.367 58.5126V54.8973C216.367 53.991 215.92 53.537 215.026 53.537H213.889C213.417 53.537 213.075 53.6454 212.864 53.8634C212.653 54.0813 212.547 54.425 212.547 54.8973V58.5126C212.547 58.984 212.654 59.3296 212.864 59.5475C213.075 59.7645 213.417 59.873 213.889 59.873ZM226.705 61.457H225.531C225.32 61.457 225.214 61.3514 225.214 61.1402V48.6746C225.214 48.4634 225.32 48.3578 225.531 48.3578H226.705C226.916 48.3578 227.022 48.4634 227.022 48.6746V61.1402C227.022 61.3514 226.916 61.457 226.705 61.457ZM234.359 50.3699V48.6746C234.359 48.4758 234.459 48.376 234.658 48.376H235.869C236.068 48.376 236.167 48.4758 236.167 48.6746V50.3699C236.167 50.5811 236.068 50.6867 235.869 50.6867H234.658C234.459 50.6867 234.359 50.5811 234.359 50.3699ZM234.359 61.1402V52.2707C234.359 52.0595 234.459 51.9539 234.658 51.9539H235.85C236.061 51.9539 236.167 52.0595 236.167 52.2707V61.1402C236.167 61.265 236.146 61.3485 236.102 61.3917C236.059 61.4349 235.981 61.457 235.869 61.457H234.676C234.465 61.457 234.359 61.3514 234.359 61.1402ZM249.188 60.1898V61.1584C249.188 61.3571 249.075 61.457 248.852 61.457H246.113C245.194 61.457 244.482 61.2026 243.979 60.6928C243.476 60.183 243.224 59.4746 243.224 58.5683V54.8406C243.224 53.9219 243.476 53.2106 243.979 52.7075C244.482 52.2045 245.193 51.953 246.113 51.953H248.852C249.075 51.953 249.188 52.0586 249.188 52.2698V53.2384C249.188 53.4371 249.075 53.536 248.852 53.536H246.374C245.479 53.536 245.032 53.9958 245.032 54.9146V58.4934C245.032 59.4122 245.479 59.871 246.374 59.871H248.852C249.075 59.871 249.188 59.9776 249.188 60.1888V60.1898ZM255.854 50.369V48.6736C255.854 48.4749 255.954 48.375 256.152 48.375H257.363C257.562 48.375 257.66 48.4749 257.66 48.6736V50.369C257.66 50.5802 257.562 50.6858 257.363 50.6858H256.152C255.954 50.6858 255.854 50.5802 255.854 50.369ZM255.854 61.1392V52.2698C255.854 52.0586 255.954 51.953 256.152 51.953H257.345C257.556 51.953 257.661 52.0586 257.661 52.2698V61.1392C257.661 61.264 257.64 61.3475 257.596 61.3907C257.553 61.4339 257.475 61.456 257.364 61.456H256.172C255.96 61.456 255.855 61.3504 255.855 61.1392H255.854ZM265.185 53.536H264.29C264.166 53.536 264.082 53.5149 264.04 53.4707C263.996 53.4275 263.974 53.3498 263.974 53.2384V52.2698C263.974 52.0586 264.08 51.953 264.291 51.953H265.186C265.311 51.953 265.372 51.8906 265.372 51.7667V50.0896C265.372 49.8784 265.484 49.7728 265.707 49.7728H266.88C267.091 49.7728 267.198 49.8784 267.198 50.0896V51.7667C267.198 51.8915 267.266 51.953 267.403 51.953H269.135C269.359 51.953 269.471 52.0586 269.471 52.2698V53.2384C269.471 53.4371 269.359 53.536 269.135 53.536H267.403C267.266 53.536 267.198 53.5984 267.198 53.7222V58.5117C267.198 59.4179 267.664 59.872 268.595 59.872H269.322C269.545 59.872 269.657 59.9786 269.657 60.1898V61.1584C269.657 61.3571 269.544 61.457 269.322 61.457H268.316C267.397 61.457 266.676 61.2083 266.154 60.712C265.631 60.2147 265.371 59.513 265.371 58.6058V53.7242C265.371 53.5994 265.309 53.5379 265.185 53.5379V53.536ZM280.591 61.456H278.951C278.032 61.456 277.32 61.2016 276.817 60.6918C276.314 60.1821 276.063 59.4736 276.063 58.5674V54.8397C276.063 53.921 276.314 53.2096 276.817 52.7066C277.32 52.2035 278.032 51.952 278.951 51.952H280.591C281.498 51.952 282.209 52.2035 282.724 52.7066C283.241 53.2096 283.498 53.921 283.498 54.8397V58.5674C283.498 59.4736 283.241 60.1811 282.724 60.6918C282.209 61.2016 281.498 61.456 280.591 61.456ZM279.212 59.872H280.349C281.243 59.872 281.69 59.4189 281.69 58.5117V54.8963C281.69 53.9901 281.243 53.536 280.349 53.536H279.212C278.74 53.536 278.398 53.6445 278.188 53.8624C277.977 54.0803 277.87 54.424 277.87 54.8963V58.5117C277.87 58.983 277.977 59.3286 278.188 59.5466C278.399 59.7635 278.741 59.872 279.212 59.872ZM291.935 61.456H290.762C290.551 61.456 290.445 61.3504 290.445 61.1392V52.2698C290.445 52.0586 290.551 51.953 290.762 51.953H291.935C292.147 51.953 292.252 52.0586 292.252 52.2698V52.9782H292.327C292.452 52.6672 292.691 52.4186 293.045 52.2323C293.399 52.0461 293.794 51.953 294.228 51.953H294.917C295.128 51.953 295.234 52.0586 295.234 52.2698V53.2384C295.234 53.4746 295.128 53.5734 294.917 53.536H293.799C292.768 53.536 292.252 54.1014 292.252 55.2314V61.1392C292.252 61.3504 292.147 61.456 291.935 61.456ZM304.882 61.456H301.453C301.242 61.456 301.136 61.3504 301.136 61.1392V60.2253C301.136 60.0266 301.243 59.9277 301.453 59.9277H304.583C305.392 59.9277 305.795 59.6483 305.795 59.0896V58.8659C305.795 58.3696 305.503 57.9904 304.918 57.7293L302.888 56.7606C302.254 56.4621 301.795 56.1328 301.508 55.7728C301.223 55.4128 301.08 54.9405 301.08 54.3568C301.08 52.7536 301.969 51.953 303.745 51.953H306.838C307.037 51.953 307.137 52.0586 307.137 52.2698V53.1827C307.137 53.3939 307.037 53.4995 306.838 53.4995H304.118C303.745 53.4995 303.459 53.5648 303.26 53.6954C303.062 53.825 302.962 53.9958 302.962 54.207V54.4125C302.962 54.8099 303.279 55.1574 303.912 55.456L305.962 56.4995C306.608 56.7846 307.052 57.1235 307.294 57.5142C307.536 57.9059 307.658 58.4118 307.658 59.033C307.658 60.6486 306.733 61.456 304.882 61.456ZM48.3402 41.1568H309.529V42.7917H48.3402V41.1568Z" fill="url(#paint0_linear_3_2)"/>
<defs>
<linearGradient id="paint0_linear_3_2" x1="144.044" y1="-9.70881" x2="166.053" y2="89.0368" gradientUnits="userSpaceOnUse">
<stop offset="1" stop-color="#FFDC9A"/>
</linearGradient>
</defs>
</svg>
