<svg width="285" height="15" viewBox="0 0 285 15" fill="none" xmlns="http://www.w3.org/2000/svg">
<path fill-rule="evenodd" clip-rule="evenodd" d="M2.77754 7.64142L23.0657 7.04142L41.6631 6.44142L59.7775 5.74142C62.4343 5.64142 65.2119 5.44142 67.9894 5.44142L80.0657 5.24142H86.7076L99.1462 5.44142L117.744 6.04142L155.784 7.34142L174.502 8.14142L193.1 8.84142C204.814 9.24142 216.528 9.54142 228.121 10.1414L237.782 10.6414L248.53 11.3414L257.828 12.0414L261.693 12.3414L266.161 12.8414L272.441 13.4414L280.411 14.6414L281.136 14.7414C281.747 14.7653 282.35 14.6214 282.853 14.3321C283.355 14.0427 283.728 13.6242 283.913 13.1414C284.155 12.5414 284.034 11.8414 283.672 11.2414C283.43 10.8414 282.706 10.2414 282.102 10.1414L277.03 9.34142L271.958 8.64142C266.454 8.03003 260.939 7.49662 255.413 7.04142C255.872 6.77971 256.229 6.41418 256.443 5.98857C256.658 5.56295 256.719 5.09525 256.621 4.64142C256.379 4.04142 255.896 3.44142 255.413 3.14142L254.085 2.64142C253.045 2.47358 251.998 2.34014 250.945 2.24142L248.53 1.94142L243.941 1.74142L234.883 1.34142L216.165 0.841421L197.568 0.541421L187.786 0.341421H158.32L139.239 0.141421C127.525 0.0414214 115.57 -0.0585786 103.735 0.0414214H86.1038C79.8242 0.0414214 73.5445 0.0414213 67.2648 0.241421L54.8263 0.341421L47.7013 0.441421L36.3496 0.841421L28.8623 1.14142C19.9258 1.64142 11.1102 2.14142 2.29449 2.84142C1.69068 2.94142 1.32839 3.14142 0.966102 3.44142C0.362288 3.84142 0 4.44142 0 5.04142C0 6.34142 1.20763 7.54142 2.77754 7.54142" fill="#916759"/>
</svg>
