<svg width="17" height="16" viewBox="0 0 17 16" fill="none" xmlns="http://www.w3.org/2000/svg">
<path d="M8.46973 2C11.8782 2 14.6272 4.67867 14.6272 8C14.6272 11.3213 11.8782 14 8.46973 14" stroke="#777E90" stroke-width="1.5" stroke-linecap="round" stroke-linejoin="round"/>
<path d="M8.46993 14C5.06145 14 2.3125 11.3213 2.3125 8C2.3125 4.67867 5.06145 2 8.46993 2" stroke="#777E90" stroke-width="1.5" stroke-linecap="round" stroke-linejoin="round"/>
<path fill-rule="evenodd" clip-rule="evenodd" d="M7.21631 2.70674C5.23909 5.92341 5.23909 10.0774 7.21631 13.2941C7.79511 14.2361 9.14496 14.2361 9.72376 13.2941C11.701 10.0774 11.701 5.92341 9.72376 2.70674C9.14428 1.76474 7.79511 1.76474 7.21631 2.70674Z" stroke="#777E90" stroke-width="1.5" stroke-linecap="round" stroke-linejoin="round"/>
<path d="M3.00293 5.23877C6.34984 6.2461 10.5889 6.2461 13.9351 5.23877" stroke="#777E90" stroke-width="1.5" stroke-linecap="round" stroke-linejoin="round"/>
<path d="M13.9361 10.7614C10.5892 9.75403 6.35013 9.75403 3.00391 10.7614" stroke="#777E90" stroke-width="1.5" stroke-linecap="round" stroke-linejoin="round"/>
</svg>
