<svg width="20" height="20" viewBox="0 0 20 20" fill="none" xmlns="http://www.w3.org/2000/svg">
<path fill-rule="evenodd" clip-rule="evenodd" d="M10 5.00016C7.15276 5.00016 4.81132 5.1008 3.17656 5.20203C2.45673 5.2466 1.88937 5.80179 1.83224 6.53473C1.74303 7.67905 1.66667 8.9675 1.66667 10.0002C1.66667 11.0328 1.74303 12.3212 1.83224 13.4656C1.88937 14.1986 2.45673 14.7537 3.17656 14.7983C4.81131 14.8995 7.15276 15.0002 10 15.0002C12.8472 15.0002 15.1887 14.8995 16.8234 14.7983C17.5433 14.7537 18.1106 14.1986 18.1677 13.4656C18.257 12.3212 18.3333 11.0328 18.3333 10.0002C18.3333 8.9675 18.257 7.67905 18.1677 6.53473C18.1106 5.80179 17.5433 5.2466 16.8234 5.20203C15.1887 5.1008 12.8472 5.00016 10 5.00016ZM3.07355 3.53855C1.5175 3.6349 0.291777 4.85089 0.170614 6.4052C0.0804294 7.56211 0 8.90175 0 10.0002C0 11.0986 0.0804294 12.4382 0.170614 13.5952C0.291777 15.1494 1.5175 16.3654 3.07355 16.4617C4.73785 16.5648 7.11394 16.6668 10 16.6668C12.8861 16.6668 15.2622 16.5648 16.9264 16.4617C18.4825 16.3654 19.7083 15.1494 19.8294 13.5952C19.9196 12.4382 20 11.0986 20 10.0002C20 8.90175 19.9196 7.56211 19.8294 6.4052C19.7083 4.85089 18.4825 3.6349 16.9264 3.53855C15.2622 3.43549 12.8861 3.3335 10 3.3335C7.11394 3.3335 4.73785 3.43549 3.07355 3.53855Z" fill="#ffffff"/>
<path d="M9.62859 7.53052L12.293 9.30679C12.7878 9.63663 12.7878 10.3636 12.293 10.6935L9.62859 12.4697C9.07484 12.839 8.33301 12.442 8.33301 11.7764V8.22389C8.33301 7.55832 9.07484 7.16132 9.62859 7.53052Z" fill="#ffffff"/>
</svg>
